<?xml version="1.0" encoding="utf-8"?>
<!-- Generator: Adobe Illustrator 26.0.1, SVG Export Plug-In . SVG Version: 6.00 Build 0)  -->
<svg version="1.1" id="Layer_1" xmlns="http://www.w3.org/2000/svg" xmlns:xlink="http://www.w3.org/1999/xlink" x="0px" y="0px"
	 viewBox="0 0 30 30" style="enable-background:new 0 0 30 30;" xml:space="preserve">
<circle cx="23.9" cy="8.6" r="2.5"/>
<path d="M14.3,8.9H4c-0.6,0-1,0.5-1,1v10.2c0,0.6,0.5,1,1,1h10.2c0.6,0,1-0.5,1-1V9.9C15.3,9.3,14.8,8.9,14.3,8.9z M11.8,12.8h-2
	v5.6H8.5v-5.6h-2v-1.1h5.4V12.8z"/>
<path d="M16.1,3.8c-2,0-3.6,1.6-3.6,3.6c0,0.1,0,0.2,0,0.3h1.8c1.2,0,2.1,0.9,2.1,2.1v1.2c1.9-0.1,3.4-1.7,3.4-3.6
	C19.7,5.5,18.1,3.8,16.1,3.8z"/>
<path d="M25.9,12.2h-3.2c0.2,0.3,0.3,0.7,0.3,1.1v6.4c0,1-0.2,2-0.5,2.9c0,0.1-0.1,0.1-0.1,0.2c0.2,0,0.4,0,0.6,0h0
	c2.2,0,3.9-1.7,3.9-3.9v-5.6C27,12.7,26.5,12.2,25.9,12.2z"/>
<path d="M22,19.7v-6.4c0-0.6-0.4-1.1-1-1.1h-4.6v7.9c0,1.2-0.9,2.1-2.1,2.1h-4.1c0.9,2.3,3.1,3.9,5.7,3.9
	C19.3,26.1,22.1,23.2,22,19.7z"/>
</svg>
