<?xml version="1.0" encoding="utf-8"?>
<!-- Generator: Adobe Illustrator 21.1.0, SVG Export Plug-In . SVG Version: 6.00 Build 0)  -->
<svg version="1.1" id="Layer_1" xmlns="http://www.w3.org/2000/svg" xmlns:xlink="http://www.w3.org/1999/xlink" x="0px" y="0px"
	 viewBox="0 0 60 60" style="enable-background:new 0 0 60 60;" xml:space="preserve">
<style type="text/css">
	.st0{display:none;fill:#353535;}
	.st1{display:none;}
</style>
<g>
	<path d="M43.9,17.5c0,0,0,16.3,0,23.5c0,0.8,0.4,1.6,0.8,2.3c0.7,1.2,0.9,2.3-0.2,3.3c-0.9,0.9-2.1,1-3.2,0.2
		c-1.1-0.9-1.1-2-0.5-3.3c0.4-0.9,0.8-1.9,0.8-2.8c0.1-7,0-23.2,0-23.2L43.9,17.5z"/>
	<rect x="39.9" y="31.2" class="st0" width="13.4" height="29.8"/>
	<circle cx="47.2" cy="16.4" r="1.8"/>
	<path d="M6.7,12.3v10.2h48.5V12.3H6.7z M14.4,13.7c0.3-0.4,0.7-0.6,1.2-0.6c0,0.5-0.1,0.9-0.4,1.3C14.9,14.8,14.4,15,14,15
		C13.9,14.5,14.1,14,14.4,13.7z M16.7,20.2c-0.3,0.5-0.7,1-1.2,1c-0.5,0-0.7-0.3-1.4-0.3c-0.6,0-0.8,0.3-1.3,0.3
		c-0.5,0-0.9-0.5-1.3-1c-0.7-1-1.2-2.9-0.5-4.1c0.3-0.6,1-1,1.7-1c0.5,0,1,0.4,1.4,0.4c0.3,0,0.9-0.4,1.6-0.4c0.6,0,1.2,0.3,1.5,0.8
		c-0.5,0.3-0.9,0.9-0.9,1.6c0,0.7,0.4,1.4,1.1,1.7C17.2,19.5,17,19.9,16.7,20.2z M51.3,21.4l-2.5-2.5c-0.5,0.3-1,0.5-1.6,0.5
		c-1.6,0-3-1.3-3-3s1.3-3,3-3s3,1.3,3,3c0,0.6-0.2,1.1-0.5,1.6l2.5,2.5L51.3,21.4z"/>
	<path d="M7.4,48.7c0.1-3.4,1.3-5.2,3.5-5.2c8,0,16,0,24.1,0c2.8,0,3.5,0.9,3.6,5.2C28.2,48.7,17.8,48.7,7.4,48.7z"/>
	<path d="M47,48.7c0.3-1.5,0.6-3,1-4.5c0.1-0.4,0.6-0.6,1-0.7c0.6-0.1,1.3,0,1.9,0c2.3,0,3.5,1.6,3.7,5.2C52,48.7,49.5,48.7,47,48.7
		z"/>
	<path d="M7.4,30.5c0.9-4.3,1.3-4.7,4.1-4.7c8.6,0,17.2,0,25.8,0c1.8,0,2.7,1.8,1.9,4.2c-0.1,0.4-0.7,0.9-1.1,0.9
		c-10,0-20.1,0-30.1,0C7.8,30.8,7.6,30.7,7.4,30.5z"/>
	<path class="st1" d="M7.4,30.4c0.7-3,1.3-3.5,3.7-3.5c8.7,0,17.4,0,26.1,0c1.3,0,2,0.2,2,1.7c0,1.6-0.6,1.9-2,1.9
		c-9.3-0.1-18.7,0-28,0C8.6,30.5,8.1,30.4,7.4,30.4z"/>
	<path d="M7.4,39.4c0.9-4.4,1.3-4.8,4-4.8c8.7,0,17.4,0,26.1,0c1,0,1.7,0.1,1.7,2c-0.1,1.6-0.3,3.2-1.7,3.2c-9.9,0-19.7,0-29.6,0
		C7.8,39.7,7.6,39.5,7.4,39.4z"/>
	<path d="M46.8,30.7c-0.1-0.3-0.1-0.3-0.1-0.4c-0.4-4.5-0.4-4.5,2.7-4.5c0.6,0,1.1,0,1.7,0c2.2,0,3.1,1.2,3.5,4.9
		C51.9,30.7,49.3,30.7,46.8,30.7z"/>
	<path class="st1" d="M54.5,30.4c-2.4,0-4.8,0.1-7.2-0.1c-0.3,0-0.7-1.1-0.7-1.7c0-0.6,0.5-1.6,0.8-1.7c1.7-0.2,3.5-0.4,5,0
		c1,0.3,1.7,1.9,2.5,2.9C54.8,30,54.6,30.2,54.5,30.4z"/>
	<path d="M54.6,39.7c-2.3,0-4.5,0.2-6.7-0.1c-1.3-0.1-1.3-1.8-1.3-3.3c0-1.6,0.6-1.7,1.5-1.7c1,0,2.1,0,3.1,0
		C53.3,34.6,54.2,35.9,54.6,39.7z"/>
</g>
</svg>
