<?xml version="1.0" encoding="utf-8"?>
<!-- Generator: Adobe Illustrator 21.1.0, SVG Export Plug-In . SVG Version: 6.00 Build 0)  -->
<svg version="1.1" id="Layer_1" xmlns="http://www.w3.org/2000/svg" xmlns:xlink="http://www.w3.org/1999/xlink" x="0px" y="0px"
	 viewBox="0 0 27 54" style="enable-background:new 0 0 27 54;" xml:space="preserve">
<title>family-chapternav-music-master-17-schou-sri-COsri</title>
<g id="Dark">
	<path d="M5.9,24.5c-2.4,0.1-3.9,1.6-5.3,3.1c-0.6,0.7-0.5,1.1-0.5,2.5c0,1.9,0,2.1,0.5,2.9c1.1,1.9,3.1,3,5.3,3.1
		c3.6,0.3,6.7-2.6,6.7-5.8S9.5,24.4,5.9,24.5z M2.8,32c0,0.3-0.3,0.6-0.7,0.5c-0.3,0-0.5-0.2-0.5-0.5v-3.4c0-0.3,0.3-0.6,0.7-0.5
		c0.3,0,0.5,0.2,0.5,0.5V32z M9.5,30.3c0,0.5-0.4,0.9-0.9,0.9c0,0,0,0,0,0H6.7c-0.5,0-0.9-0.4-0.9-0.9c0,0,0,0,0,0v-0.1
		c0-0.5,0.4-0.9,0.9-0.9c0,0,0,0,0,0h1.9c0.5,0,0.9,0.4,0.9,0.9c0,0,0,0,0,0L9.5,30.3z M6.5,37.2c0,0.4,0,13.5,0,13.5
		c0.1,0.7,0.7,1.3,1.4,1.3c0.4,0,0.7,0,1.3,0h0.3c0.8-0.1,1.4-0.7,1.4-1.5v-0.2l0,0v-2.4V36C9.6,36.9,8.1,37.3,6.5,37.2L6.5,37.2z
		 M26.5,27.5c-1.4-1.5-3-2.9-5.4-3c-3.6-0.1-6.7,2.6-6.7,5.8c0.2,3.4,3.1,6,6.5,5.8c0,0,0,0,0,0c2.2-0.1,4.2-1.3,5.4-3.2
		c0.5-0.8,0.5-1,0.5-2.9C26.9,28.6,27.1,28.2,26.5,27.5L26.5,27.5z M21.3,30.3c0,0.5-0.4,0.9-0.9,0.9c0,0,0,0,0,0h-2
		c-0.5,0-0.9-0.4-0.9-0.9c0,0,0,0,0,0v-0.1c0-0.5,0.4-0.9,0.9-0.9c0,0,0,0,0,0h1.9c0.5,0,0.9,0.4,0.9,0.9c0,0,0,0,0,0L21.3,30.3z
		 M25.4,32c0,0.3-0.3,0.6-0.6,0.6c-0.3,0-0.6-0.3-0.6-0.6v-3.4c0-0.3,0.3-0.6,0.6-0.6c0.3,0,0.6,0.3,0.6,0.6l0,0V32z M16,36v11.8
		v2.4l0,0v0.2c0,0.8,0.7,1.5,1.5,1.5h0.3c0.6,0,0.9,0,1.3,0c0.7-0.1,1.3-0.6,1.4-1.3c0,0,0-13.1,0-13.5C18.9,37.3,17.3,36.9,16,36z"
		/>
</g>
</svg>
